<?xml version="1.0" standalone="no"?>
<!DOCTYPE svg PUBLIC "-//W3C//DTD SVG 20010904//EN"
 "http://www.w3.org/TR/2001/REC-SVG-20010904/DTD/svg10.dtd">
<svg version="1.0" xmlns="http://www.w3.org/2000/svg"
 width="3866.000000pt" height="3866.000000pt" viewBox="0 0 3866.000000 3866.000000"
 preserveAspectRatio="xMidYMid meet">
<metadata>
Created by potrace 1.14, written by Peter Selinger 2001-2017
</metadata>
<g transform="translate(0.000000,3866.000000) scale(0.100000,-0.100000)"
fill="#000000" stroke="none">
<path d="M12892 37694 c-18 -71 -34 -140 -36 -154 -2 -14 -7 -36 -10 -50 -8
-36 -14 -74 -27 -170 -6 -47 -13 -96 -15 -110 -16 -94 -22 -390 -11 -567 18
-290 100 -634 210 -883 10 -25 28 -65 38 -90 11 -25 25 -54 30 -64 6 -11 29
-52 50 -93 21 -40 45 -83 52 -95 230 -369 383 -552 909 -1083 552 -558 597
-606 896 -950 127 -146 254 -395 277 -545 3 -19 9 -60 14 -90 14 -88 5 -304
-18 -410 -18 -86 -57 -221 -80 -275 -5 -11 -19 -45 -31 -75 -12 -30 -28 -68
-35 -85 -30 -66 -65 -159 -61 -162 5 -5 123 83 127 95 3 7 196 216 265 286 69
71 234 264 300 352 241 321 385 636 438 959 15 87 16 388 3 441 -3 12 -8 37
-11 55 -46 275 -218 617 -451 898 -185 223 -487 531 -810 826 -16 15 -68 62
-114 104 -46 42 -96 87 -111 101 -33 31 -187 170 -210 190 -36 31 -145 126
-179 156 -20 17 -74 65 -121 106 -47 41 -98 85 -114 99 -16 13 -54 47 -85 75
-31 28 -76 68 -101 90 -24 21 -115 109 -201 194 -363 360 -551 622 -730 1019
l-16 35 -31 -130z"/>
<path d="M24735 37038 c-25 -63 -43 -119 -49 -151 -2 -15 -7 -35 -10 -45 -2
-9 -7 -39 -11 -66 -3 -27 -8 -52 -9 -55 -2 -3 -7 -33 -11 -66 -4 -33 -9 -71
-11 -85 -2 -14 -6 -54 -9 -90 -4 -36 -9 -83 -11 -105 -10 -73 -6 -459 5 -540
5 -44 13 -105 16 -135 23 -199 114 -524 205 -725 146 -325 340 -613 630 -939
66 -74 235 -248 389 -400 735 -724 901 -902 1027 -1104 147 -232 213 -459 209
-712 -4 -217 -39 -360 -150 -615 -29 -66 -62 -140 -73 -163 -11 -23 -17 -42
-13 -42 67 0 519 466 713 736 207 289 367 628 404 859 2 17 7 41 10 55 20 91
26 335 11 460 -18 150 -78 341 -162 515 -45 93 -203 344 -258 411 -9 11 -39
48 -67 84 -70 89 -75 95 -143 175 -74 86 -335 347 -476 475 -57 52 -116 106
-131 120 -15 14 -60 54 -100 90 -40 36 -85 76 -100 90 -44 40 -99 90 -190 170
-47 41 -101 89 -120 107 -19 17 -44 40 -56 50 -40 34 -392 347 -488 433 -22
19 -64 57 -95 85 -77 69 -339 330 -387 386 -70 83 -77 93 -139 179 -116 162
-199 310 -282 505 -19 44 -38 84 -42 88 -5 5 -16 -11 -26 -35z"/>
<path d="M16725 36516 c17 -14 147 -115 290 -224 426 -323 555 -438 730 -653
154 -189 285 -472 334 -724 27 -137 35 -393 17 -507 -3 -21 -8 -54 -11 -73
-12 -86 -18 -116 -41 -215 -24 -101 -47 -183 -63 -225 -5 -11 -25 -65 -46
-120 -34 -90 -91 -212 -156 -334 -28 -52 -225 -349 -354 -534 -50 -70 -94
-136 -100 -145 -5 -9 -13 -19 -16 -22 -3 -3 -36 -48 -72 -100 -73 -104 -245
-344 -362 -503 -41 -56 -83 -113 -92 -126 -24 -34 -477 -631 -572 -756 -291
-378 -568 -763 -720 -1000 -269 -418 -485 -850 -596 -1190 -28 -85 -39 -120
-61 -200 -10 -37 -63 -299 -69 -340 -3 -28 -8 -64 -11 -80 -2 -17 -6 -118 -8
-225 -4 -177 1 -278 18 -383 3 -20 9 -54 12 -75 3 -20 7 -44 9 -52 2 -8 7 -28
10 -45 8 -48 12 -67 25 -115 19 -73 81 -260 99 -301 17 -38 17 -99 0 -99 -17
0 -199 61 -281 94 -462 187 -829 509 -1106 973 -85 142 -205 389 -257 527 -69
188 -134 425 -161 595 -2 14 -6 35 -9 46 -20 96 -39 338 -39 532 -1 84 -2 153
-4 153 -4 0 -116 -86 -134 -103 -7 -6 -53 -48 -103 -92 -296 -265 -642 -616
-896 -910 -118 -137 -216 -255 -303 -365 -37 -47 -78 -98 -91 -115 -13 -16
-59 -77 -101 -135 -42 -58 -91 -122 -107 -144 -99 -128 -492 -737 -585 -906
-13 -25 -39 -70 -57 -100 -83 -140 -415 -784 -415 -804 0 -3 -18 -44 -40 -91
-79 -170 -259 -608 -291 -705 -4 -14 -22 -63 -39 -110 -63 -172 -214 -649
-245 -770 -2 -8 -26 -105 -54 -215 -44 -174 -80 -330 -98 -415 -3 -14 -6 -29
-7 -35 -2 -5 -6 -28 -10 -50 -4 -22 -16 -83 -26 -135 -11 -52 -21 -108 -24
-125 -3 -16 -12 -70 -21 -120 -9 -49 -22 -139 -31 -200 -8 -60 -17 -122 -19
-136 -3 -15 -7 -47 -10 -70 -3 -24 -7 -55 -10 -69 -4 -23 -11 -88 -20 -185 -2
-22 -6 -65 -9 -95 -3 -30 -8 -80 -11 -110 -2 -30 -7 -82 -10 -115 -3 -33 -8
-105 -11 -160 -2 -55 -7 -145 -10 -200 -6 -111 -6 -678 0 -795 10 -204 17
-318 21 -350 2 -19 7 -64 10 -100 9 -104 14 -162 20 -205 2 -22 10 -80 16
-130 6 -49 12 -101 14 -115 3 -14 7 -43 10 -65 6 -34 15 -93 42 -260 3 -23 50
-259 78 -395 9 -46 77 -323 90 -365 8 -27 23 -84 34 -125 26 -98 56 -196 147
-472 41 -124 74 -232 74 -240 0 -55 -29 -96 -193 -280 -95 -106 -257 -292
-362 -413 -104 -121 -192 -222 -195 -225 -34 -32 -183 -216 -203 -252 -35 -61
-34 -68 7 -58 32 7 91 38 276 146 47 28 173 101 280 164 107 62 227 131 265
154 39 22 72 41 75 41 3 0 16 8 30 17 78 50 428 228 645 328 70 32 360 150
370 150 6 0 479 187 520 206 52 23 472 183 695 264 118 43 242 87 275 99 133
49 812 273 985 326 102 31 208 63 235 72 56 17 381 112 405 118 8 2 123 32
255 68 601 163 1354 337 1820 421 17 3 41 8 55 11 14 3 66 12 115 21 111 21
163 42 206 86 63 63 115 196 140 357 89 579 -255 1216 -792 1465 -52 24 -124
54 -161 67 -64 22 -82 39 -58 54 29 18 341 26 462 12 202 -23 452 -81 553
-127 11 -5 43 -18 72 -29 214 -82 418 -215 808 -526 131 -104 211 -169 444
-365 562 -469 748 -569 1141 -617 84 -10 426 -10 510 0 141 17 373 70 465 108
17 7 36 13 43 15 30 6 265 125 349 177 201 125 449 348 570 513 70 96 135 224
159 314 20 77 26 221 13 303 -20 122 -94 291 -189 433 -46 68 -287 372 -352
445 -13 14 -50 57 -83 94 -33 38 -69 78 -80 89 -11 12 -78 86 -150 166 -71 80
-134 150 -140 156 -5 6 -37 41 -70 79 -33 37 -69 77 -80 90 -154 172 -380 463
-501 647 -211 321 -360 638 -447 948 -24 85 -65 269 -72 325 -3 28 -8 59 -11
70 -35 152 -35 665 0 870 3 17 8 48 11 70 3 22 10 63 15 90 5 28 12 62 14 78
3 15 7 35 10 45 3 9 7 29 10 43 16 97 143 523 176 594 5 11 22 54 38 95 16 41
64 155 107 253 l79 179 14 -29 c9 -15 17 -61 18 -103 5 -129 14 -294 18 -325
3 -16 10 -68 16 -115 7 -47 14 -96 16 -110 3 -14 7 -38 10 -55 20 -119 78
-310 166 -545 7 -19 45 -101 85 -181 253 -505 668 -950 1284 -1374 68 -46 129
-88 134 -93 23 -18 390 -246 520 -322 77 -45 147 -86 155 -91 26 -15 173 -101
215 -124 22 -13 166 -96 320 -185 154 -90 289 -168 300 -174 11 -6 31 -19 45
-27 14 -9 75 -45 135 -81 202 -119 493 -306 675 -432 206 -144 453 -370 587
-536 220 -273 357 -581 404 -907 17 -122 18 -143 18 -298 0 -154 -1 -181 -14
-275 -13 -105 -16 -125 -20 -140 -2 -8 -7 -34 -10 -56 -3 -23 -21 -102 -40
-175 -19 -74 -37 -143 -40 -154 -5 -22 -92 -272 -153 -442 l-41 -111 37 -7
c20 -3 64 -12 97 -20 33 -8 105 -23 160 -35 100 -21 246 -54 403 -91 45 -10
121 -28 170 -39 122 -29 502 -125 657 -167 72 -19 137 -37 145 -38 8 -2 49
-13 90 -25 41 -12 98 -28 125 -35 216 -59 696 -203 970 -292 270 -87 624 -207
720 -244 304 -115 495 -196 790 -332 198 -91 710 -352 895 -455 36 -20 67 -37
70 -37 3 0 14 -6 25 -13 11 -7 171 -96 355 -198 391 -218 362 -201 604 -338
104 -59 191 -105 193 -103 8 8 -188 277 -300 412 -32 39 -65 79 -74 90 -9 11
-52 60 -97 110 -45 49 -89 99 -99 109 -9 11 -27 40 -38 64 -31 62 -28 129 11
237 70 201 186 554 195 596 2 9 12 47 24 85 26 90 102 380 107 413 3 14 11 53
19 86 8 33 17 75 20 94 3 19 7 37 9 40 2 3 7 22 10 41 3 19 14 82 25 140 20
105 22 115 36 200 4 25 9 52 10 60 3 16 23 157 30 205 21 159 25 199 30 260 4
39 8 81 10 95 2 14 7 63 10 110 3 47 8 108 10 135 28 328 17 1076 -21 1380 -2
17 -6 63 -9 103 -4 41 -8 82 -10 92 -2 10 -6 46 -10 79 -3 33 -8 70 -10 82 -3
12 -9 59 -15 103 -13 94 -20 140 -26 170 -2 11 -8 46 -14 76 -21 125 -30 170
-50 270 -12 58 -23 116 -26 130 -3 14 -14 59 -24 100 -10 41 -21 86 -24 100
-41 208 -234 794 -379 1150 -205 504 -549 1219 -763 1588 -68 117 -88 151
-114 198 -158 278 -541 823 -798 1134 -133 160 -235 280 -287 334 -11 12 -55
60 -97 108 -201 223 -664 669 -878 844 -19 16 -37 31 -40 34 -11 12 -181 151
-260 214 -47 37 -94 74 -104 83 -42 34 -364 273 -369 273 -3 0 15 -48 40 -107
111 -267 200 -550 238 -753 2 -14 9 -50 15 -80 6 -30 13 -73 16 -95 3 -22 7
-53 10 -70 23 -153 22 -558 -2 -677 -2 -13 -7 -45 -10 -73 -10 -85 -70 -315
-109 -420 -156 -415 -438 -749 -817 -968 -178 -101 -378 -171 -613 -212 -120
-21 -401 -27 -532 -12 -348 40 -757 188 -1033 372 -269 181 -428 401 -498 690
-24 101 -22 484 4 526 2 3 6 21 9 40 22 127 111 395 234 704 40 99 78 194 86
210 37 81 263 615 306 722 64 161 154 429 174 522 2 9 17 75 34 146 17 72 33
147 35 167 3 21 10 63 15 95 6 32 13 81 16 108 3 28 8 59 10 70 21 108 22 645
1 760 -2 11 -6 47 -10 80 -4 33 -11 83 -16 110 -5 28 -12 67 -15 89 -18 124
-86 382 -150 566 -89 256 -237 573 -371 795 -36 61 -74 124 -84 142 -18 31
-109 165 -185 273 -237 338 -571 702 -916 1001 -729 630 -1735 1150 -2803
1449 -82 23 -156 43 -165 45 -9 2 -72 18 -141 35 -69 18 -136 34 -150 36 -14
3 -53 11 -88 19 -34 8 -77 17 -95 20 -17 3 -39 8 -47 10 -8 2 -28 7 -45 10
-40 7 -134 24 -165 30 -13 3 -42 7 -65 11 -22 3 -76 12 -120 19 -92 16 -227
35 -360 50 -27 4 -61 8 -75 10 -14 2 -54 6 -90 10 -36 4 -76 8 -90 10 -24 3
-72 8 -235 21 -38 3 -88 8 -110 10 -22 3 -184 8 -360 10 l-320 6 30 -26z"/>
<path d="M20108 19085 c-1 -1 -158 -6 -348 -10 -190 -4 -383 -8 -430 -10 -208
-7 -430 -16 -485 -20 -33 -3 -107 -7 -165 -10 -100 -5 -155 -9 -315 -20 -64
-5 -102 -8 -235 -20 -25 -2 -76 -7 -115 -10 -38 -3 -90 -7 -115 -10 -25 -2
-79 -7 -120 -10 -41 -4 -86 -8 -100 -10 -14 -2 -56 -6 -95 -10 -38 -3 -83 -8
-100 -10 -16 -2 -48 -7 -70 -10 -22 -2 -56 -7 -75 -10 -19 -3 -51 -7 -70 -10
-68 -8 -117 -16 -210 -35 -30 -6 -66 -13 -80 -15 -47 -9 -72 -14 -88 -19 -9
-3 -30 -7 -45 -10 -24 -4 -51 -12 -114 -31 -10 -3 -10 -11 -3 -31 6 -15 15
-60 21 -100 11 -83 81 -367 194 -789 44 -166 176 -689 190 -755 45 -212 86
-426 100 -520 8 -58 17 -118 20 -135 2 -16 9 -70 15 -120 6 -49 13 -101 15
-115 9 -59 25 -264 41 -510 4 -71 4 -645 0 -730 -14 -249 -25 -390 -41 -520
-3 -19 -7 -62 -10 -94 -3 -33 -7 -67 -9 -75 -3 -9 -7 -38 -10 -66 -6 -53 -34
-245 -41 -279 -2 -12 -7 -37 -9 -56 -5 -35 -36 -198 -56 -295 -35 -170 -100
-437 -146 -605 -52 -185 -68 -243 -129 -440 -48 -157 -44 -260 17 -380 62
-125 189 -226 309 -248 55 -10 188 -6 474 13 33 2 114 7 180 10 301 14 444 21
615 30 47 3 144 7 215 10 72 3 166 7 210 10 44 3 125 7 180 10 55 3 136 8 180
10 44 3 121 7 170 10 50 2 133 7 185 10 52 3 145 7 205 10 61 3 128 8 150 10
22 2 90 7 150 10 61 3 135 8 165 10 30 2 107 7 170 10 63 4 131 8 150 10 19 2
85 6 145 10 61 4 124 8 140 10 17 2 77 7 135 10 57 3 122 8 143 10 22 3 83 7
136 10 53 3 107 7 121 10 14 2 61 6 105 10 92 8 153 13 210 19 22 3 74 8 115
11 41 3 109 10 150 15 41 5 107 12 145 16 39 3 77 8 86 9 9 2 40 6 70 10 30 3
65 8 79 10 31 5 127 17 160 20 42 4 120 16 240 36 63 10 132 21 154 23 21 3
46 8 55 10 9 3 36 8 61 11 48 5 75 10 155 25 28 5 64 12 80 15 47 8 76 14 181
36 55 11 110 23 124 25 14 3 41 9 60 14 19 5 46 11 60 14 14 2 45 9 70 16 106
26 327 81 344 85 10 2 44 12 75 21 31 9 63 18 71 19 27 6 192 55 335 100 529
166 1018 376 1446 622 165 94 223 143 238 200 5 21 12 153 16 293 6 255 8 293
20 470 15 214 21 283 46 485 28 223 31 244 59 420 80 495 194 945 400 1570 49
149 96 295 104 325 20 74 103 352 123 415 8 28 22 71 29 98 22 76 41 139 57
189 14 45 14 49 -5 73 -46 59 -325 158 -802 285 -66 18 -126 33 -135 35 -9 2
-70 17 -136 34 -66 16 -131 32 -145 35 -27 5 -174 39 -260 61 -30 8 -66 16
-80 19 -14 3 -106 23 -205 46 -99 22 -189 42 -200 44 -11 3 -40 9 -65 15 -25
5 -56 12 -70 14 -14 3 -99 21 -190 41 -91 20 -174 38 -185 40 -11 2 -108 22
-216 45 -108 22 -207 42 -220 45 -13 2 -82 16 -154 31 -140 29 -143 29 -195
39 -19 3 -46 8 -60 11 -25 6 -298 59 -355 69 -32 6 -251 44 -300 52 -16 2 -55
9 -85 14 -30 5 -75 12 -99 15 -23 3 -55 7 -70 9 -32 6 -96 15 -146 21 -21 3
-50 7 -64 10 -14 2 -48 7 -76 10 -27 3 -67 8 -87 10 -85 11 -116 14 -173 20
-33 3 -71 8 -85 10 -14 2 -54 6 -90 10 -79 7 -140 13 -200 20 -25 2 -83 7
-130 10 -47 3 -101 7 -120 10 -19 2 -80 7 -135 10 -55 3 -127 8 -160 10 -33 2
-121 7 -195 11 -74 3 -164 8 -200 10 -36 2 -256 6 -490 9 -234 4 -430 8 -437
10 -6 2 -13 2 -15 0z"/>
<path d="M16175 18729 c-82 -16 -168 -31 -190 -35 -22 -3 -42 -7 -45 -9 -3 -2
-22 -6 -43 -9 -20 -3 -153 -31 -295 -61 -141 -31 -266 -57 -277 -59 -41 -8
-564 -138 -670 -167 -364 -100 -938 -277 -1130 -349 -27 -10 -102 -37 -165
-60 -115 -42 -407 -153 -445 -170 -11 -5 -96 -42 -190 -81 -93 -39 -201 -86
-240 -104 -38 -18 -92 -43 -120 -55 -291 -130 -730 -365 -1055 -564 -120 -74
-436 -284 -481 -320 -14 -12 -36 -28 -49 -36 -12 -8 -45 -33 -74 -55 -29 -22
-68 -51 -86 -65 -18 -14 -41 -32 -50 -40 -10 -8 -59 -48 -109 -89 -91 -74
-101 -87 -80 -108 19 -19 225 -411 412 -783 191 -383 248 -502 354 -740 35
-80 74 -165 85 -190 34 -74 175 -414 243 -585 210 -533 381 -1041 529 -1565
50 -180 142 -532 152 -589 3 -14 7 -28 9 -31 2 -4 7 -22 10 -41 3 -19 12 -61
20 -94 8 -33 17 -71 19 -85 3 -14 19 -92 36 -175 18 -82 34 -161 36 -175 3
-14 12 -63 20 -110 9 -47 18 -96 20 -110 3 -14 9 -47 14 -75 5 -27 12 -67 15
-87 3 -21 7 -55 10 -75 3 -21 10 -60 15 -88 5 -27 11 -75 15 -105 7 -68 23
-130 34 -130 6 0 42 62 46 80 0 3 14 32 29 65 16 33 34 76 41 95 7 19 24 61
39 92 14 31 26 59 26 62 0 6 75 167 105 226 145 282 264 469 455 714 8 10 22
26 30 35 8 9 30 35 49 56 49 58 148 160 227 235 455 431 1083 746 1604 807
121 14 444 6 492 -12 7 -3 27 -7 43 -9 179 -24 414 -111 670 -250 193 -104
246 -129 257 -118 6 6 21 55 34 109 24 98 150 640 159 678 6 32 83 342 105
428 20 79 66 283 75 338 6 36 13 79 20 122 3 17 10 57 15 87 10 59 17 108 25
180 3 25 7 63 10 85 6 43 11 98 21 208 3 38 8 87 10 110 9 82 12 743 4 822 -4
44 -11 123 -14 176 -4 53 -9 107 -11 120 -2 13 -6 52 -9 87 -25 307 -100 691
-246 1267 -134 526 -385 1396 -405 1401 -5 1 -77 -11 -160 -27z"/>
<path d="M27446 17838 c-2 -7 -8 -29 -14 -48 -17 -55 -203 -703 -207 -720 -5
-24 -94 -330 -110 -380 -14 -45 -114 -392 -120 -420 -2 -8 -9 -31 -15 -50 -6
-19 -18 -57 -25 -85 -7 -27 -27 -102 -45 -165 -51 -189 -97 -377 -125 -510
-35 -174 -35 -171 -40 -210 -3 -19 -8 -46 -11 -60 -3 -13 -7 -40 -10 -60 -2
-19 -11 -73 -19 -120 -14 -89 -25 -161 -31 -220 -1 -19 -5 -48 -8 -65 -3 -16
-8 -64 -11 -105 -4 -41 -8 -86 -11 -99 -2 -14 -6 -66 -9 -115 -4 -50 -8 -102
-11 -116 -24 -151 -24 -1054 1 -1385 2 -33 7 -96 10 -140 6 -86 13 -166 21
-230 2 -22 7 -67 10 -100 3 -33 7 -73 9 -90 1 -16 6 -57 10 -90 3 -33 8 -72
11 -86 2 -15 7 -47 10 -70 3 -24 7 -53 9 -64 1 -11 6 -42 10 -70 3 -27 8 -57
10 -65 2 -8 7 -37 11 -65 3 -27 8 -59 10 -70 3 -11 13 -69 24 -130 24 -134 26
-143 44 -225 8 -36 22 -99 30 -140 9 -41 24 -102 32 -135 9 -33 17 -67 19 -75
7 -34 48 -181 76 -275 141 -467 315 -886 522 -1260 19 -33 49 -87 67 -120 18
-33 43 -78 55 -100 50 -89 218 -390 305 -545 51 -91 113 -202 139 -247 25 -46
52 -85 59 -88 7 -3 95 43 195 101 366 213 630 327 953 409 471 121 957 119
1464 -5 19 -4 45 -11 58 -14 12 -3 62 -17 110 -31 458 -138 907 -367 1362
-695 133 -95 197 -124 255 -115 93 13 163 81 402 390 351 454 570 884 726
1420 14 50 28 101 31 115 2 14 12 57 21 95 9 39 19 79 21 90 2 11 6 31 9 45 7
37 16 90 21 130 2 19 9 62 14 95 5 33 12 89 15 125 4 36 8 81 10 100 22 193
22 643 0 860 -2 19 -6 71 -10 115 -3 44 -8 89 -10 100 -2 11 -7 43 -10 70 -9
76 -28 201 -50 325 -50 282 -151 605 -340 1100 -163 423 -207 551 -194 566 15
18 134 64 166 64 29 0 80 -48 134 -127 18 -26 36 -49 41 -51 4 -2 8 -8 8 -13
0 -7 56 -95 70 -109 3 -3 10 -12 15 -21 21 -34 190 -284 196 -289 3 -3 9 -12
12 -20 4 -8 21 -37 37 -65 110 -182 200 -422 236 -625 4 -25 8 -47 9 -50 1 -3
5 -25 9 -50 12 -65 15 -82 21 -110 2 -14 7 -45 10 -70 37 -289 74 -301 193
-65 50 98 99 243 151 446 83 323 96 416 95 639 -1 135 -5 179 -23 244 -50 186
-147 331 -321 477 -60 50 -242 181 -265 190 -40 16 -125 85 -125 101 0 11 33
119 74 241 91 273 120 408 120 572 0 126 -5 165 -30 255 -109 389 -581 608
-943 440 -144 -67 -272 -194 -335 -333 -47 -100 -54 -122 -66 -187 -38 -203 0
-341 180 -668 l40 -73 -63 6 c-198 19 -230 41 -346 235 -110 184 -196 293
-361 459 -146 147 -185 183 -345 315 -217 179 -433 338 -645 474 -52 33 -100
64 -106 69 -5 4 -19 13 -30 20 -190 117 -293 180 -309 189 -11 6 -78 45 -150
86 -310 179 -1036 556 -1284 667 -41 18 -118 54 -170 78 -53 25 -114 54 -136
63 -22 10 -67 30 -100 45 -33 15 -96 43 -140 62 -44 19 -98 43 -120 53 -62 28
-307 132 -435 184 -63 26 -128 54 -145 61 -33 14 -162 66 -360 145 -112 44
-148 59 -188 78 -4 2 -9 -3 -11 -10z"/>
<path d="M5607 16314 c-1 -1 -38 -5 -82 -8 -75 -6 -94 -8 -170 -21 -44 -7 -63
-11 -140 -30 -38 -9 -77 -18 -85 -20 -25 -6 -185 -63 -235 -85 -27 -12 -45
-25 -43 -33 2 -7 52 -56 113 -108 60 -52 150 -134 200 -184 94 -94 135 -161
169 -274 21 -71 32 -216 17 -225 -6 -4 -89 8 -184 28 -94 19 -206 40 -247 46
-41 7 -97 16 -125 20 -64 11 -364 10 -413 0 -20 -5 -53 -11 -72 -14 -32 -5
-76 -17 -172 -46 -21 -6 -40 -14 -42 -19 -12 -19 174 -185 344 -308 47 -33 96
-70 109 -82 13 -12 27 -21 31 -21 25 0 228 -226 355 -395 86 -114 235 -384
235 -425 0 -9 4 -20 9 -26 14 -14 49 -180 56 -259 3 -38 7 -118 10 -177 6
-175 54 -315 144 -428 36 -45 140 -147 216 -211 22 -19 51 -44 65 -57 45 -40
233 -169 304 -207 201 -107 389 -156 619 -160 664 -11 1237 414 1406 1044 85
316 83 677 -5 1026 -34 133 -80 276 -114 351 -26 57 -66 107 -81 102 -7 -3
-154 -137 -259 -235 -64 -61 -72 -58 -85 32 -4 22 -20 96 -36 163 -140 577
-440 931 -930 1100 -177 61 -329 98 -529 127 -68 10 -347 25 -353 19z"/>
<path d="M9783 16070 c-466 -158 -787 -289 -1143 -466 -351 -175 -403 -211
-402 -281 1 -21 6 -51 11 -68 8 -28 119 -283 221 -510 42 -93 172 -390 217
-495 25 -57 53 -124 64 -147 47 -107 61 -140 141 -333 47 -113 102 -248 123
-300 20 -52 43 -108 50 -125 66 -153 315 -891 340 -1005 2 -8 14 -55 28 -105
83 -293 179 -710 242 -1050 14 -77 29 -153 32 -170 4 -16 7 -37 8 -45 3 -20
24 -139 29 -165 2 -11 7 -42 10 -69 4 -27 9 -52 11 -55 2 -4 6 -33 10 -65 3
-33 8 -62 10 -65 2 -4 6 -33 10 -66 3 -33 8 -69 10 -80 3 -11 7 -38 10 -60 3
-22 7 -53 10 -70 2 -16 7 -52 10 -80 11 -85 15 -119 19 -150 3 -16 8 -57 11
-90 3 -33 8 -71 10 -85 2 -14 7 -54 10 -90 3 -36 7 -76 10 -90 4 -27 14 -118
20 -185 2 -22 6 -67 10 -100 10 -98 14 -137 30 -330 2 -27 7 -95 10 -150 4
-55 8 -118 10 -140 24 -258 24 -1074 0 -1250 -2 -16 -7 -64 -10 -105 -3 -41
-8 -88 -10 -105 -2 -16 -9 -73 -15 -125 -11 -93 -15 -121 -25 -177 -31 -187
-41 -267 -51 -399 -6 -92 -6 -94 17 -103 13 -5 26 -7 29 -6 3 2 61 6 130 10
125 6 144 8 255 20 33 4 71 8 85 10 43 5 132 17 154 21 11 2 38 6 61 10 22 3
99 17 170 31 143 28 141 27 205 42 25 5 56 12 70 14 14 3 81 19 150 37 69 17
132 33 140 35 16 3 121 31 245 65 44 12 91 24 104 26 14 3 28 7 33 10 4 3 16
7 25 9 10 1 59 15 109 29 50 15 100 29 110 31 10 3 60 16 109 30 126 36 651
173 683 179 57 10 254 56 262 61 5 3 6 15 1 28 -12 30 -115 247 -158 332 -153
304 -317 725 -403 1040 -12 44 -26 91 -30 105 -23 67 -117 481 -134 590 -3 19
-8 46 -11 60 -5 24 -29 160 -40 225 -3 17 -7 39 -10 51 -3 12 -7 39 -11 60 -7
51 -81 445 -94 504 -5 25 -12 56 -14 70 -3 14 -9 45 -14 70 -5 25 -24 115 -42
200 -18 85 -34 162 -35 170 -2 8 -15 67 -30 130 -14 63 -27 124 -29 135 -10
50 -144 604 -190 785 -36 140 -187 693 -207 755 -5 17 -25 83 -44 148 -114
383 -210 679 -369 1135 -109 312 -408 1073 -481 1227 -8 17 -53 116 -101 220
-83 185 -405 826 -427 854 -16 19 -77 56 -104 63 -12 3 -113 -26 -250 -72z"/>
<path d="M8389 14068 c0 -7 -2 -22 -4 -33 -2 -11 -7 -49 -10 -85 -9 -105 -25
-239 -30 -260 -2 -8 -7 -28 -10 -45 -19 -113 -62 -259 -107 -364 -156 -362
-393 -609 -761 -790 -412 -202 -830 -271 -1193 -196 -308 64 -562 207 -868
489 -146 135 -159 145 -194 152 -41 8 -78 -9 -184 -88 -482 -357 -879 -760
-1142 -1158 -99 -149 -114 -174 -141 -222 -27 -50 -90 -116 -150 -159 -27 -20
-171 -109 -320 -199 -148 -90 -317 -197 -375 -237 -58 -39 -150 -103 -205
-142 -119 -82 -246 -148 -301 -156 -52 -8 -109 26 -239 145 -128 117 -216 161
-320 162 -86 0 -176 -52 -232 -135 -87 -130 -150 -460 -121 -642 4 -27 10 -66
13 -85 12 -75 18 -109 40 -225 13 -66 26 -131 29 -145 2 -14 7 -32 10 -40 3
-8 8 -32 11 -54 3 -21 7 -42 10 -46 2 -3 7 -20 10 -36 13 -73 18 -97 47 -224
16 -74 32 -146 34 -160 3 -14 10 -43 16 -65 5 -22 12 -51 14 -65 13 -76 74
-217 120 -277 101 -133 296 -257 422 -269 90 -9 142 19 276 151 278 271 574
464 1060 692 192 89 243 113 371 168 61 26 124 53 140 60 170 73 458 187 645
255 63 23 133 48 155 57 91 35 508 173 692 229 501 152 1153 316 1583 398 14
3 50 10 80 15 30 6 66 13 80 16 14 3 36 7 50 10 14 2 39 7 55 10 32 5 127 22
161 29 12 2 39 7 60 10 22 4 64 11 94 16 82 14 111 19 155 25 22 3 51 8 65 10
14 3 43 7 65 11 22 3 67 9 100 14 33 5 83 12 110 16 28 3 57 8 66 9 9 2 40 6
70 10 30 3 88 10 129 15 136 16 164 19 265 25 55 4 116 8 135 10 19 2 100 7
179 11 79 3 151 8 160 9 9 2 42 4 73 4 95 2 97 9 57 261 -11 69 -22 136 -24
150 -3 22 -41 218 -50 260 -58 270 -132 567 -210 850 -129 467 -299 985 -435
1325 -134 337 -276 601 -281 523z"/>
<path d="M26285 13109 c-11 -5 -42 -19 -70 -31 -27 -12 -52 -22 -55 -23 -6 -2
-85 -39 -268 -126 -80 -38 -146 -69 -148 -69 -2 0 -45 -20 -96 -44 -206 -97
-250 -117 -389 -176 -229 -98 -465 -184 -749 -270 -135 -41 -486 -134 -550
-145 -18 -3 -36 -8 -40 -10 -4 -2 -22 -7 -41 -10 -19 -3 -74 -15 -124 -26 -49
-11 -124 -27 -165 -35 -41 -8 -86 -16 -100 -19 -14 -3 -38 -8 -55 -10 -16 -3
-37 -8 -45 -10 -8 -2 -33 -7 -55 -10 -91 -13 -112 -17 -150 -25 -22 -5 -62
-12 -90 -15 -27 -4 -57 -8 -65 -10 -8 -3 -78 -14 -155 -25 -76 -11 -151 -22
-165 -25 -29 -4 -154 -22 -220 -30 -45 -6 -60 -8 -135 -19 -22 -3 -62 -8 -90
-11 -27 -3 -59 -7 -70 -9 -11 -2 -51 -7 -90 -10 -38 -4 -77 -9 -85 -11 -8 -2
-51 -6 -95 -10 -44 -3 -87 -8 -95 -10 -8 -2 -46 -7 -85 -10 -38 -4 -83 -9
-100 -11 -16 -1 -61 -6 -100 -9 -38 -3 -81 -8 -95 -10 -14 -2 -59 -7 -100 -10
-41 -3 -91 -7 -110 -10 -19 -2 -69 -7 -110 -10 -41 -3 -97 -8 -125 -10 -110
-10 -184 -15 -257 -20 -82 -5 -193 -13 -293 -20 -33 -3 -96 -7 -140 -10 -109
-7 -206 -14 -295 -20 -41 -3 -120 -7 -175 -10 -55 -3 -140 -7 -190 -10 -78 -4
-227 -12 -415 -20 -30 -1 -127 -6 -215 -10 -88 -4 -185 -9 -215 -10 -30 -2
-140 -6 -245 -10 -317 -11 -470 -17 -760 -30 -55 -3 -161 -7 -235 -10 -205 -9
-252 -13 -263 -24 -6 -6 4 -37 28 -88 67 -139 92 -196 128 -288 44 -113 115
-343 132 -425 2 -8 10 -46 19 -85 19 -84 44 -231 52 -300 3 -27 7 -61 10 -75
25 -157 25 -804 0 -936 -2 -10 -7 -55 -10 -99 -4 -44 -9 -87 -11 -95 -2 -8 -6
-40 -10 -71 -3 -31 -7 -65 -9 -75 -5 -26 -15 -91 -22 -139 -3 -22 -7 -47 -9
-55 -2 -8 -7 -35 -10 -60 -3 -25 -23 -134 -44 -243 -31 -162 -35 -199 -24
-208 25 -21 140 -2 688 116 219 48 255 55 285 61 14 3 43 10 65 16 39 10 52
13 105 23 14 3 140 32 280 65 140 34 262 63 272 65 9 2 75 18 147 35 72 17
133 32 136 31 2 0 24 6 47 15 23 8 55 17 72 20 33 5 420 108 472 125 17 5 42
12 55 14 13 3 47 11 74 19 196 58 231 68 245 71 18 4 306 90 470 141 240 75
736 238 775 254 11 5 65 25 120 44 55 19 138 48 185 66 47 17 105 38 130 46
25 9 77 28 115 44 39 15 108 42 155 60 47 17 94 36 105 41 11 4 90 37 175 73
616 256 1233 584 1765 939 103 69 298 205 330 230 6 4 71 53 145 109 401 301
758 619 1141 1017 152 156 212 244 235 340 4 14 9 168 11 342 4 336 3 347 -42
328z"/>
<path d="M15229 12606 c-2 -2 -34 -6 -70 -10 -85 -8 -220 -32 -289 -51 -30 -9
-59 -17 -65 -19 -87 -21 -267 -96 -420 -174 -110 -57 -384 -229 -450 -284 -11
-9 -51 -43 -90 -74 -479 -397 -913 -1029 -1093 -1594 -34 -106 -77 -282 -86
-350 -3 -25 -8 -58 -11 -75 -3 -16 -7 -43 -10 -60 -25 -156 -26 -555 0 -725 2
-14 6 -47 10 -75 6 -46 59 -310 69 -345 2 -8 9 -37 16 -65 12 -57 13 -58 76
-255 74 -233 206 -532 331 -750 11 -19 39 -71 63 -115 38 -71 91 -169 174
-317 25 -46 47 -86 106 -193 103 -186 96 -175 288 -515 86 -151 175 -310 199
-353 24 -43 55 -96 68 -117 14 -22 25 -41 25 -44 0 -4 239 -425 305 -536 43
-74 276 -464 295 -495 8 -13 41 -66 72 -118 64 -105 106 -147 147 -147 38 0
1441 468 1465 489 33 29 44 63 40 126 -21 334 26 546 186 840 18 33 40 71 49
85 52 79 134 269 180 418 31 100 100 335 106 362 1 8 18 69 35 135 18 66 36
139 41 163 5 24 11 47 14 52 3 4 12 41 21 81 8 41 17 81 19 89 2 8 13 58 25
110 12 52 23 102 25 110 36 159 147 775 160 890 3 30 8 62 10 70 2 8 7 40 10
70 3 30 10 82 15 115 5 33 11 83 14 110 13 108 16 141 21 175 2 19 9 84 15
145 13 136 17 170 26 265 18 174 7 541 -21 738 -3 17 -7 49 -10 70 -48 330
-182 743 -329 1016 -69 128 -83 152 -146 246 -221 329 -480 565 -782 714 -172
84 -290 121 -523 161 -41 8 -320 16 -326 11z"/>
<path d="M26304 11871 c-143 -135 -248 -234 -349 -326 -54 -49 -106 -97 -115
-105 -20 -20 -160 -142 -234 -205 -33 -27 -64 -55 -70 -60 -6 -6 -36 -30 -66
-55 -30 -25 -57 -47 -60 -50 -11 -13 -304 -243 -415 -326 -216 -163 -583 -413
-738 -505 -32 -19 -66 -38 -75 -44 -27 -16 -244 -141 -287 -165 -183 -103
-661 -342 -925 -463 -25 -11 -47 -21 -50 -22 -5 -2 -45 -20 -140 -63 -64 -29
-357 -152 -475 -200 -129 -52 -470 -184 -485 -188 -3 0 -17 -6 -33 -12 -83
-35 -594 -207 -847 -286 -215 -67 -515 -154 -715 -208 -82 -21 -184 -48 -225
-59 -41 -11 -86 -23 -99 -25 -14 -3 -86 -20 -160 -39 -75 -18 -197 -47 -271
-65 -74 -17 -163 -38 -198 -46 -59 -14 -568 -119 -622 -129 -23 -4 -289 -60
-335 -71 -11 -2 -33 -7 -50 -10 -16 -3 -129 -27 -250 -54 -121 -26 -233 -50
-250 -53 -101 -17 -236 -52 -275 -71 -25 -12 -55 -36 -66 -54 -17 -25 -46
-118 -69 -222 -2 -8 -22 -94 -45 -190 -67 -286 -81 -353 -71 -363 9 -9 134
-10 226 -2 355 30 1204 35 1765 10 170 -8 472 -23 575 -30 39 -2 124 -7 190
-11 66 -3 138 -7 160 -9 22 -2 85 -6 140 -10 55 -3 120 -8 145 -10 25 -2 86
-6 136 -10 50 -3 111 -7 135 -10 24 -2 89 -6 144 -10 55 -3 116 -8 135 -10 19
-2 76 -7 125 -10 50 -4 108 -8 130 -10 184 -17 946 -53 1295 -61 244 -5 1247
-5 1475 0 183 5 458 15 569 21 37 2 141 7 230 10 88 3 185 8 215 10 29 2 106
6 170 10 64 3 134 8 156 10 22 2 67 7 100 10 98 9 256 36 355 60 116 28 299
99 391 150 33 19 63 35 65 35 2 0 23 11 45 26 22 14 55 33 72 43 18 10 114 66
215 125 101 58 185 106 187 106 2 0 38 20 79 45 42 25 78 45 80 45 1 0 59 32
127 71 68 39 153 87 189 106 36 20 70 39 75 43 6 4 30 19 55 32 172 96 334
190 376 220 68 48 84 99 53 168 -11 24 -61 110 -112 192 -51 82 -99 161 -108
176 -431 730 -736 1430 -938 2157 -23 83 -48 173 -56 200 -25 88 -72 290 -101
430 -4 21 -21 112 -55 295 -26 142 -39 188 -53 193 -7 3 -48 -30 -92 -72z"/>
<path d="M9007 10364 c-1 -1 -96 -5 -212 -8 -115 -3 -221 -8 -235 -10 -14 -3
-52 -8 -85 -11 -33 -3 -107 -13 -165 -21 -58 -8 -118 -17 -135 -19 -62 -8
-118 -17 -138 -21 -12 -2 -40 -7 -62 -9 -22 -3 -89 -14 -150 -25 -60 -11 -123
-22 -140 -25 -53 -10 -129 -24 -155 -30 -57 -11 -126 -26 -145 -29 -156 -30
-636 -144 -847 -201 -73 -20 -140 -38 -148 -40 -28 -7 -275 -76 -325 -91 -27
-8 -88 -26 -135 -40 -314 -92 -987 -310 -1215 -394 -211 -78 -463 -173 -498
-190 -23 -10 -71 -31 -107 -45 -687 -283 -1417 -752 -1526 -981 -64 -136 1
-234 186 -279 3 -1 39 -7 80 -14 41 -7 84 -15 95 -17 11 -2 65 -11 120 -19 55
-8 111 -17 125 -19 14 -3 59 -10 100 -16 221 -35 380 -92 530 -189 80 -52 129
-94 268 -230 122 -118 296 -214 552 -304 451 -159 810 -244 1160 -274 170 -16
525 -9 635 12 31 6 132 26 150 30 121 26 324 100 418 151 15 8 27 12 27 9 0
-3 9 -1 21 5 19 11 141 15 184 6 11 -2 43 -7 70 -10 28 -4 86 -16 130 -28 83
-22 124 -23 405 -18 80 1 170 -1 200 -4 177 -22 380 -81 605 -176 82 -34 429
-141 675 -206 30 -8 77 -21 104 -29 77 -23 80 -21 100 41 9 30 19 63 21 72 2
9 12 53 23 97 20 78 55 249 67 330 4 22 8 51 11 65 4 30 11 90 22 185 15 142
7 668 -13 890 -2 22 -7 90 -10 150 -3 61 -8 130 -10 155 -1 25 -6 88 -9 140
-4 52 -9 118 -11 145 -6 65 -15 186 -20 255 -2 30 -7 87 -10 125 -3 39 -8 95
-10 125 -2 30 -7 87 -10 125 -3 39 -7 99 -10 135 -3 36 -7 92 -10 125 -3 33
-7 94 -10 135 -3 41 -7 100 -10 130 -3 30 -7 84 -10 120 -11 152 -17 196 -28
220 -23 47 -46 51 -270 48 -115 -2 -209 -4 -210 -4z"/>
<path d="M29819 8706 c-2 -2 -42 -7 -89 -10 -102 -7 -350 -50 -411 -70 -24 -8
-55 -17 -69 -20 -43 -8 -210 -66 -315 -108 -212 -87 -389 -189 -527 -303 -62
-51 -67 -58 -57 -78 6 -12 91 -145 188 -294 97 -150 187 -291 201 -313 14 -23
88 -137 165 -255 206 -317 327 -505 426 -664 9 -14 55 -87 102 -161 79 -123
307 -496 355 -580 32 -55 110 -216 138 -283 14 -34 29 -71 34 -82 10 -23 90
-247 145 -405 36 -103 99 -321 108 -370 8 -42 67 -289 73 -305 9 -23 22 -19
129 45 140 84 397 210 428 210 7 0 17 4 23 9 7 7 103 43 124 46 3 0 21 6 40
12 33 11 89 26 205 58 28 7 66 16 85 19 19 3 46 8 60 11 55 11 194 32 295 44
122 15 188 20 340 26 159 6 232 23 258 60 63 87 194 568 261 960 3 17 8 41 10
55 3 14 8 41 10 60 3 19 8 46 10 60 3 14 7 48 10 75 4 28 8 61 11 75 2 14 7
52 11 85 3 33 7 74 9 90 4 32 13 141 20 245 3 36 8 97 11 135 9 108 12 443 3
489 -4 23 -9 55 -12 71 -7 43 -46 153 -70 194 -65 114 -146 188 -324 297 -62
38 -185 114 -275 169 -90 55 -172 105 -183 111 -11 6 -60 35 -110 64 -205 122
-447 243 -640 320 -85 34 -301 107 -338 114 -12 2 -60 14 -107 25 -47 11 -98
22 -115 25 -16 3 -46 8 -65 11 -99 18 -282 32 -421 33 -86 1 -158 0 -160 -2z"/>
<path d="M27970 7856 c-36 -18 -126 -64 -200 -103 -74 -39 -198 -103 -275
-143 -77 -40 -171 -90 -210 -110 -38 -20 -115 -61 -170 -90 -55 -29 -145 -78
-200 -108 -55 -30 -129 -70 -165 -90 -62 -33 -466 -263 -503 -286 -9 -6 -16
-17 -15 -24 5 -24 222 -258 288 -311 36 -28 245 -171 465 -318 442 -294 579
-388 830 -571 284 -208 331 -257 375 -395 27 -83 23 -162 -16 -327 -35 -152
-37 -243 -5 -288 13 -18 35 -38 50 -44 32 -13 590 -175 661 -193 8 -2 67 -18
131 -36 64 -18 123 -30 130 -27 8 3 27 45 42 94 102 318 152 466 200 595 66
176 83 248 86 361 3 135 -25 255 -103 438 -44 102 -124 262 -149 294 -7 11
-106 165 -201 313 -28 43 -73 114 -102 158 -28 44 -215 334 -414 645 -199 311
-372 573 -384 582 -31 26 -73 21 -146 -16z"/>
<path d="M13085 6884 c-17 -5 -581 -130 -625 -139 -55 -12 -227 -53 -685 -165
-137 -34 -257 -63 -265 -65 -21 -4 -181 -43 -475 -115 -716 -175 -676 -161
-693 -225 -5 -17 -10 -183 -11 -370 -2 -187 -4 -356 -6 -375 -2 -19 -6 -78
-10 -130 -4 -52 -8 -106 -10 -120 -2 -14 -6 -50 -10 -80 -7 -60 -7 -61 -29
-200 -8 -52 -18 -113 -20 -135 -3 -22 -10 -64 -14 -93 -8 -45 -7 -54 8 -62 15
-8 128 -34 200 -46 14 -3 36 -7 50 -9 14 -3 36 -8 50 -10 25 -5 35 -7 125 -25
28 -5 61 -11 75 -14 14 -2 120 -22 235 -45 116 -22 226 -42 245 -46 19 -3 61
-11 93 -17 73 -14 123 -1 169 45 40 40 47 48 309 347 41 47 133 153 204 235
70 83 131 152 134 155 3 3 40 45 81 95 73 87 114 136 135 159 6 6 39 45 75 86
115 132 134 153 205 229 88 93 258 258 310 302 22 19 47 41 55 50 31 33 241
186 334 243 53 33 104 68 113 79 17 17 16 21 -11 73 -16 31 -41 74 -56 97 -15
23 -55 89 -89 147 -34 58 -73 113 -87 123 -26 19 -76 29 -109 21z"/>
<path d="M16350 4898 c-19 -4 -51 -10 -70 -13 -235 -38 -727 -202 -1085 -360
-170 -75 -225 -105 -225 -122 0 -16 196 -524 236 -611 20 -43 93 -240 99 -266
3 -12 12 -46 20 -76 19 -64 21 -75 36 -155 18 -98 19 -104 25 -256 7 -148 -9
-343 -28 -355 -5 -3 -158 -7 -341 -9 -316 -4 -972 -12 -1512 -20 -333 -5 -921
-15 -1175 -20 -113 -2 -342 -7 -510 -10 -168 -3 -377 -7 -465 -10 -88 -2 -286
-7 -440 -10 -154 -4 -342 -8 -417 -10 -76 -2 -138 -1 -138 2 0 3 35 62 78 131
94 153 155 261 335 592 16 30 51 93 77 140 26 47 79 144 118 215 39 72 87 159
106 195 20 36 53 98 72 137 48 96 44 101 -86 118 -25 4 -56 8 -70 10 -14 2
-50 7 -80 10 -30 4 -63 9 -74 11 -10 2 -37 6 -60 9 -22 3 -57 7 -76 10 -19 3
-52 7 -74 10 -21 3 -50 7 -65 10 -14 2 -82 11 -151 20 -69 8 -138 17 -155 20
-16 2 -56 7 -88 11 l-58 6 -42 -44 c-23 -24 -130 -170 -237 -324 -107 -153
-198 -283 -202 -289 -5 -5 -65 -86 -134 -180 -113 -151 -189 -250 -204 -265
-3 -3 -32 -39 -65 -80 -57 -71 -327 -389 -388 -456 -15 -18 -34 -40 -41 -49
-10 -14 -30 -18 -97 -20 -230 -7 -496 -16 -599 -20 -63 -3 -189 -7 -280 -10
-177 -6 -331 -12 -530 -20 -69 -2 -192 -7 -275 -10 -82 -3 -190 -8 -240 -10
-49 -3 -157 -7 -240 -10 -82 -3 -188 -7 -235 -10 -47 -2 -148 -7 -225 -10 -77
-3 -174 -8 -215 -10 -41 -2 -133 -7 -205 -10 -71 -3 -161 -8 -200 -10 -38 -2
-124 -6 -190 -9 -183 -10 -290 -15 -400 -22 -55 -3 -136 -7 -180 -9 -80 -4
-199 -11 -345 -20 -138 -9 -234 -15 -325 -20 -173 -10 -257 -16 -465 -30 -36
-3 -101 -7 -145 -10 -44 -3 -109 -7 -145 -10 -36 -3 -92 -7 -125 -10 -122 -9
-231 -17 -270 -20 -22 -2 -80 -6 -130 -10 -49 -3 -106 -8 -125 -10 -19 -2 -69
-7 -110 -10 -41 -3 -95 -8 -120 -10 -122 -11 -179 -16 -220 -20 -25 -3 -74 -7
-110 -10 -36 -3 -81 -7 -100 -10 -19 -2 -64 -7 -100 -10 -36 -4 -81 -8 -100
-10 -19 -2 -62 -7 -95 -10 -33 -3 -76 -8 -95 -10 -77 -10 -117 -15 -165 -20
-27 -3 -66 -7 -85 -10 -19 -3 -55 -7 -80 -10 -25 -4 -56 -8 -70 -10 -14 -2
-45 -6 -70 -10 -123 -16 -207 -29 -335 -51 -77 -13 -153 -26 -170 -29 -16 -3
-41 -8 -55 -11 -14 -3 -36 -8 -50 -10 -156 -28 -381 -103 -435 -146 -113 -89
23 -174 415 -262 63 -14 129 -27 145 -30 17 -3 98 -16 180 -30 83 -14 173 -28
200 -31 28 -3 64 -8 80 -11 41 -7 124 -18 220 -29 33 -4 67 -9 75 -10 9 -2 43
-6 75 -10 33 -3 74 -8 90 -10 17 -2 62 -7 100 -10 39 -4 81 -8 95 -11 14 -2
54 -6 90 -9 36 -3 81 -7 100 -10 46 -6 118 -13 205 -20 39 -3 88 -8 110 -10
44 -5 111 -11 220 -20 39 -3 90 -8 115 -10 140 -13 241 -20 380 -30 47 -3 108
-7 135 -10 61 -6 150 -12 275 -20 52 -3 120 -8 150 -10 82 -6 216 -15 295 -20
39 -3 106 -7 150 -10 44 -3 121 -8 170 -10 50 -2 122 -7 160 -10 80 -5 195
-12 340 -20 55 -3 136 -8 180 -10 44 -3 127 -7 185 -10 58 -3 146 -7 195 -10
50 -3 140 -7 200 -10 61 -3 153 -7 205 -10 147 -8 274 -14 405 -20 66 -3 165
-7 220 -10 55 -3 163 -8 240 -10 77 -3 187 -8 245 -10 99 -5 194 -9 490 -20
69 -3 184 -7 255 -10 203 -8 386 -14 555 -20 85 -3 214 -7 285 -10 72 -2 211
-7 310 -10 99 -3 241 -8 315 -10 74 -3 218 -7 320 -10 102 -3 257 -7 345 -10
88 -2 252 -7 365 -10 113 -3 286 -7 385 -10 213 -6 536 -13 835 -20 118 -2
328 -7 465 -10 348 -7 726 -15 1020 -20 237 -4 473 -8 1300 -20 3100 -47 7503
-47 10805 0 735 10 1880 30 2305 40 121 2 337 7 480 10 143 3 337 8 430 10 94
3 269 7 390 10 121 3 294 7 385 10 91 3 253 7 360 10 224 6 454 13 655 19 77
3 232 8 345 11 113 3 252 8 310 10 58 3 179 7 270 10 91 3 219 7 285 10 66 2
183 7 260 10 77 3 203 7 280 10 150 6 301 12 479 20 61 2 179 7 261 10 83 3
186 8 230 10 85 5 238 12 420 20 61 3 153 7 205 10 52 3 145 8 205 10 185 8
455 22 570 30 39 2 120 7 180 10 61 3 142 8 180 10 39 3 111 7 160 10 50 3
124 7 165 10 41 3 120 7 175 10 55 3 125 7 155 10 30 2 98 7 150 10 52 4 115
8 140 10 25 2 92 6 150 10 58 3 121 8 140 10 19 3 76 7 125 10 50 3 117 8 150
11 33 3 85 7 115 9 113 8 206 15 240 19 37 5 157 15 249 22 31 2 77 6 104 9
62 7 126 13 212 20 39 3 86 8 105 10 19 2 62 7 95 10 33 4 74 8 90 10 17 1 62
6 100 10 39 3 81 8 95 10 14 2 52 7 85 10 33 3 71 8 85 10 36 6 178 24 230 30
25 3 56 7 70 10 14 2 45 7 70 10 235 31 635 112 773 157 127 41 210 99 203
141 -11 77 -241 161 -631 232 -90 16 -267 45 -295 49 -19 2 -51 7 -70 10 -57
9 -108 16 -174 22 -33 3 -63 8 -66 9 -3 2 -33 6 -65 10 -33 3 -73 8 -90 10
-16 2 -57 7 -90 10 -33 3 -71 8 -85 10 -14 3 -56 7 -95 11 -38 3 -77 7 -85 9
-8 3 -49 7 -90 10 -41 4 -91 8 -110 10 -19 2 -69 7 -110 10 -41 3 -86 8 -100
10 -14 2 -59 6 -100 10 -41 3 -95 8 -120 10 -25 2 -79 7 -120 10 -41 3 -95 8
-120 10 -25 2 -81 7 -125 10 -44 3 -96 8 -115 10 -19 3 -78 7 -130 11 -161 10
-189 12 -415 29 -27 2 -95 6 -150 10 -55 3 -120 8 -145 10 -25 2 -94 7 -155
10 -60 3 -135 8 -165 10 -30 3 -95 7 -145 10 -49 3 -121 7 -160 10 -38 2 -122
7 -185 10 -63 3 -146 7 -185 10 -38 3 -113 7 -165 10 -104 5 -262 14 -380 20
-41 2 -136 7 -210 10 -74 4 -160 8 -190 10 -30 2 -129 6 -220 10 -91 4 -194 8
-228 10 -35 2 -139 7 -230 11 -92 4 -187 8 -212 9 -25 1 -133 6 -240 10 -107
4 -211 9 -230 9 l-35 2 3 124 c2 69 5 199 7 290 2 91 6 176 9 190 2 14 7 48
11 75 5 45 10 78 21 139 12 69 53 208 101 343 99 284 293 874 293 893 0 27
-27 38 -80 35 -87 -6 -219 -21 -281 -31 -15 -2 -45 -6 -67 -9 -49 -6 -227 -41
-307 -61 -33 -8 -67 -16 -76 -19 -66 -15 -236 -70 -329 -105 -30 -12 -71 -27
-90 -35 -128 -48 -276 -134 -339 -196 -58 -58 -107 -144 -129 -226 -18 -66
-22 -117 -26 -333 -2 -140 -7 -266 -9 -280 -3 -14 -8 -43 -12 -65 -27 -187
-116 -435 -216 -607 l-40 -67 -122 4 c-129 5 -320 11 -687 21 -358 10 -375 10
-373 20 1 5 13 43 27 84 14 41 28 91 31 110 3 19 10 51 15 70 5 19 11 53 14
75 4 22 8 51 11 65 2 14 6 41 9 60 14 100 46 341 51 385 3 28 10 77 15 110 5
33 12 128 15 210 3 83 7 159 8 170 3 41 -14 95 -36 110 -56 36 -783 293 -849
299 -83 8 -130 -46 -143 -164 -3 -36 -8 -85 -11 -110 -22 -217 -103 -477 -207
-662 -78 -140 -220 -307 -342 -404 -27 -21 -52 -41 -55 -44 -19 -19 -90 -66
-175 -115 -108 -62 -154 -92 -255 -165 l-65 -48 -125 3 c-155 4 -693 14 -1105
20 -170 3 -429 7 -575 10 -254 4 -817 12 -1510 20 -1179 14 -2461 19 -4691 19
l-2546 -1 -3 51 c-18 295 21 566 116 809 79 202 105 331 104 517 -1 69 -2 136
-4 150 -2 14 -7 50 -11 80 -9 74 -47 250 -85 390 -17 63 -36 133 -41 155 -6
22 -14 44 -20 50 -12 12 -53 13 -99 3z"/>
</g>
</svg>
